REM DIRINDEX 1\2,1\3\5,1\3\6,1\4\7,1\4\8
REM DIRNAME folder01,folder02,folder03,folder04,folder05,folder06,folder07,folder08
TITLE ""
FILE "EG_E3_05.mp3" MP3
  TRACK 01 AUDIO
    TITLE "0:"
    INDEX 01 00:00:00
  TRACK 02 AUDIO
    TITLE "5:cjc139_1085"
    INDEX 01 00:00:17
  TRACK 03 AUDIO
    TITLE "6:cjc139_1086"
    INDEX 01 00:03:29
  TRACK 04 AUDIO
    TITLE "5:cjc139_1087"
    INDEX 01 00:06:14
  TRACK 05 AUDIO
    TITLE "6:cjc139_1088"
    INDEX 01 00:08:13
  TRACK 06 AUDIO
    TITLE "5:cjc139_1089"
    INDEX 01 00:10:74
  TRACK 07 AUDIO
    TITLE "6:cjc139_1090"
    INDEX 01 00:13:22
  TRACK 08 AUDIO
    TITLE "5:cjc139_1091"
    INDEX 01 00:16:08
  TRACK 09 AUDIO
    TITLE "6:cjc139_1092"
    INDEX 01 00:18:39
  TRACK 10 AUDIO
    TITLE "5:cjc139_1093"
    INDEX 01 00:21:25
  TRACK 11 AUDIO
    TITLE "6:cjc139_1094"
    INDEX 01 00:24:35
  TRACK 12 AUDIO
    TITLE "5:cjc139_1095"
    INDEX 01 00:27:18
  TRACK 13 AUDIO
    TITLE "6:cjc139_1096"
    INDEX 01 00:29:23
  TRACK 14 AUDIO
    TITLE "5:cjc139_1097"
    INDEX 01 00:32:07
  TRACK 15 AUDIO
    TITLE "6:cjc139_1098"
    INDEX 01 00:34:10
  TRACK 16 AUDIO
    TITLE "5:cjc139_1099"
    INDEX 01 00:36:70
  TRACK 17 AUDIO
    TITLE "6:cjc139_1100"
    INDEX 01 00:38:51
  TRACK 18 AUDIO
    TITLE "5:cjc139_1101"
    INDEX 01 00:41:38
  TRACK 19 AUDIO
    TITLE "6:cjc139_1102"
    INDEX 01 00:43:09
  TRACK 20 AUDIO
    TITLE "5:cjc139_1103"
    INDEX 01 00:45:71
  TRACK 21 AUDIO
    TITLE "6:cjc139_1104"
    INDEX 01 00:47:34
  TRACK 22 AUDIO
    TITLE "5:cjc139_1105"
    INDEX 01 00:50:21
  TRACK 23 AUDIO
    TITLE "6:cjc139_1106"
    INDEX 01 00:52:04
  TRACK 24 AUDIO
    TITLE "5:cjc139_1107"
    INDEX 01 00:54:66
  TRACK 25 AUDIO
    TITLE "6:cjc139_1108"
    INDEX 01 00:56:57
  TRACK 26 AUDIO
    TITLE "5:cjc139_1109"
    INDEX 01 00:59:43
  TRACK 27 AUDIO
    TITLE "6:cjc139_1110"
    INDEX 01 01:01:25
  TRACK 28 AUDIO
    TITLE "5:cjc139_1111"
    INDEX 01 01:04:09
  TRACK 29 AUDIO
    TITLE "6:cjc139_1112"
    INDEX 01 01:07:25
  TRACK 30 AUDIO
    TITLE "5:cjc139_1113"
    INDEX 01 01:10:10
  TRACK 31 AUDIO
    TITLE "6:cjc139_1114"
    INDEX 01 01:12:66
  TRACK 32 AUDIO
    TITLE "5:cjc139_1115"
    INDEX 01 01:15:50
  TRACK 33 AUDIO
    TITLE "6:cjc139_1116"
    INDEX 01 01:18:15
  TRACK 34 AUDIO
    TITLE "5:cjc139_1117"
    INDEX 01 01:21:00
  TRACK 35 AUDIO
    TITLE "6:cjc139_1118"
    INDEX 01 01:23:16
  TRACK 36 AUDIO
    TITLE "5:cjc139_1119"
    INDEX 01 01:26:03
  TRACK 37 AUDIO
    TITLE "6:cjc139_1120"
    INDEX 01 01:27:55
  TRACK 38 AUDIO
    TITLE "5:cjc139_1121"
    INDEX 01 01:30:40
  TRACK 39 AUDIO
    TITLE "6:cjc139_1122"
    INDEX 01 01:33:36
  TRACK 40 AUDIO
    TITLE "5:cjc139_1123"
    INDEX 01 01:36:21
  TRACK 41 AUDIO
    TITLE "6:cjc139_1124"
    INDEX 01 01:38:16
  TRACK 42 AUDIO
    TITLE "5:cjc139_1125"
    INDEX 01 01:40:74
  TRACK 43 AUDIO
    TITLE "6:cjc139_1126"
    INDEX 01 01:43:27
  TRACK 44 AUDIO
    TITLE "5:cjc139_1127"
    INDEX 01 01:46:12
  TRACK 45 AUDIO
    TITLE "6:cjc139_1128"
    INDEX 01 01:48:01
  TRACK 46 AUDIO
    TITLE "5:cjc139_1129"
    INDEX 01 01:50:62
  TRACK 47 AUDIO
    TITLE "6:cjc139_1130"
    INDEX 01 01:52:65
  TRACK 48 AUDIO
    TITLE "5:cjc139_1131"
    INDEX 01 01:55:54
  TRACK 49 AUDIO
    TITLE "6:cjc139_1132"
    INDEX 01 01:58:07
  TRACK 50 AUDIO
    TITLE "5:cjc139_1133"
    INDEX 01 02:00:65
  TRACK 51 AUDIO
    TITLE "6:cjc139_1134"
    INDEX 01 02:03:53
  TRACK 52 AUDIO
    TITLE "5:cjc139_1135"
    INDEX 01 02:06:38
  TRACK 53 AUDIO
    TITLE "6:cjc139_1136"
    INDEX 01 02:08:33
  TRACK 54 AUDIO
    TITLE "5:cjc139_1137"
    INDEX 01 02:11:19
  TRACK 55 AUDIO
    TITLE "6:cjc139_1138"
    INDEX 01 02:13:12
  TRACK 56 AUDIO
    TITLE "5:cjc139_1139"
    INDEX 01 02:15:72
  TRACK 57 AUDIO
    TITLE "6:cjc139_1140"
    INDEX 01 02:17:67
  TRACK 58 AUDIO
    TITLE "5:cjc139_1141"
    INDEX 01 02:20:52
  TRACK 59 AUDIO
    TITLE "6:cjc139_1142"
    INDEX 01 02:23:28
  TRACK 60 AUDIO
    TITLE "5:cjc139_1143"
    INDEX 01 02:26:13
  TRACK 61 AUDIO
    TITLE "6:cjc139_1144"
    INDEX 01 02:28:65
  TRACK 62 AUDIO
    TITLE "5:cjc139_1145"
    INDEX 01 02:31:50
  TRACK 63 AUDIO
    TITLE "6:cjc139_1146"
    INDEX 01 02:34:07
  TRACK 64 AUDIO
    TITLE "5:cjc139_1147"
    INDEX 01 02:36:68
  TRACK 65 AUDIO
    TITLE "6:cjc139_1148"
    INDEX 01 02:39:06
  TRACK 66 AUDIO
    TITLE "5:cjc139_1149"
    INDEX 01 02:41:66
  TRACK 67 AUDIO
    TITLE "6:cjc139_1150"
    INDEX 01 02:44:66
  TRACK 68 AUDIO
    TITLE "5:cjc139_1151"
    INDEX 01 02:47:52
  TRACK 69 AUDIO
    TITLE "6:cjc139_1152"
    INDEX 01 02:51:05
  TRACK 70 AUDIO
    TITLE "5:cjc139_1153"
    INDEX 01 02:53:65
  TRACK 71 AUDIO
    TITLE "6:cjc139_1154"
    INDEX 01 02:57:45
  TRACK 72 AUDIO
    TITLE "5:cjc139_1155"
    INDEX 01 03:00:28
  TRACK 73 AUDIO
    TITLE "6:cjc139_1156"
    INDEX 01 03:02:03
  TRACK 74 AUDIO
    TITLE "5:cjc139_1157"
    INDEX 01 03:04:65
  TRACK 75 AUDIO
    TITLE "6:cjc139_1158"
    INDEX 01 03:06:67
  TRACK 76 AUDIO
    TITLE "5:cjc139_1159"
    INDEX 01 03:09:50
  TRACK 77 AUDIO
    TITLE "6:cjc139_1160"
    INDEX 01 03:11:20
  TRACK 78 AUDIO
    TITLE "5:cjc139_1161"
    INDEX 01 03:14:04
  TRACK 79 AUDIO
    TITLE "6:cjc139_1162"
    INDEX 01 03:16:68
  TRACK 80 AUDIO
    TITLE "5:cjc139_1163"
    INDEX 01 03:19:52
  TRACK 81 AUDIO
    TITLE "6:cjc139_1164"
    INDEX 01 03:21:49
  TRACK 82 AUDIO
    TITLE "5:cjc139_1165"
    INDEX 01 03:24:34
  TRACK 83 AUDIO
    TITLE "6:cjc139_1166"
    INDEX 01 03:27:64
  TRACK 84 AUDIO
    TITLE "5:cjc139_1167"
    INDEX 01 03:30:50
  TRACK 85 AUDIO
    TITLE "6:cjc139_1168"
    INDEX 01 03:33:35
  TRACK 86 AUDIO
    TITLE "5:cjc139_1169"
    INDEX 01 03:36:20
  TRACK 87 AUDIO
    TITLE "6:cjc139_1170"
    INDEX 01 03:38:40
  TRACK 88 AUDIO
    TITLE "5:cjc139_1171"
    INDEX 01 03:41:25
  TRACK 89 AUDIO
    TITLE "6:cjc139_1172"
    INDEX 01 03:44:00
  TRACK 90 AUDIO
    TITLE "5:cjc139_1173"
    INDEX 01 03:46:59
  TRACK 91 AUDIO
    TITLE "6:cjc139_1174"
    INDEX 01 03:49:14
  TRACK 92 AUDIO
    TITLE "5:cjc139_1175"
    INDEX 01 03:51:74
  TRACK 93 AUDIO
    TITLE "6:cjc139_1176"
    INDEX 01 03:53:63
  TRACK 94 AUDIO
    TITLE "5:cjc139_1177"
    INDEX 01 03:56:52
  TRACK 95 AUDIO
    TITLE "6:cjc139_1178"
    INDEX 01 03:59:07
  TRACK 96 AUDIO
    TITLE "5:cjc139_1179"
    INDEX 01 04:00:32
  TRACK 97 AUDIO
    TITLE "6:cjc139_1180"
    INDEX 01 04:03:01
  TRACK 98 AUDIO
    TITLE "5:cjc139_1181"
    INDEX 01 04:05:62
  TRACK 99 AUDIO
    TITLE "6:cjc139_1182"
    INDEX 01 04:08:04
  TRACK 100 AUDIO
    TITLE "5:cjc139_1183"
    INDEX 01 04:10:67
  TRACK 101 AUDIO
    TITLE "6:cjc139_1184"
    INDEX 01 04:13:13
  TRACK 102 AUDIO
    TITLE "5:cjc139_1185"
    INDEX 01 04:16:00
  TRACK 103 AUDIO
    TITLE "6:cjc139_1186"
    INDEX 01 04:18:04
  TRACK 104 AUDIO
    TITLE "5:cjc139_1187"
    INDEX 01 04:20:68
  TRACK 105 AUDIO
    TITLE "6:cjc139_1188"
    INDEX 01 04:23:13
  TRACK 106 AUDIO
    TITLE "5:cjc139_1189"
    INDEX 01 04:25:71
  TRACK 107 AUDIO
    TITLE "6:cjc139_1190"
    INDEX 01 04:27:56
  TRACK 108 AUDIO
    TITLE "5:cjc139_1191"
    INDEX 01 04:30:43
  TRACK 109 AUDIO
    TITLE "6:cjc139_1192"
    INDEX 01 04:32:16
  TRACK 110 AUDIO
    TITLE "5:cjc139_1193"
    INDEX 01 04:35:01
  TRACK 111 AUDIO
    TITLE "6:cjc139_1194"
    INDEX 01 04:37:47
  TRACK 112 AUDIO
    TITLE "5:cjc139_1195"
    INDEX 01 04:40:31
  TRACK 113 AUDIO
    TITLE "6:cjc139_1196"
    INDEX 01 04:43:63
  TRACK 114 AUDIO
    TITLE "5:cjc139_1197"
    INDEX 01 04:46:50
  TRACK 115 AUDIO
    TITLE "6:cjc139_1198"
    INDEX 01 04:50:08
  TRACK 116 AUDIO
    TITLE "5:cjc139_1199"
    INDEX 01 04:52:68
  TRACK 117 AUDIO
    TITLE "6:cjc139_1200"
    INDEX 01 04:55:13
  TRACK 118 AUDIO
    TITLE "5:cjc139_1201"
    INDEX 01 04:58:00
  TRACK 119 AUDIO
    TITLE "6:cjc139_1202"
    INDEX 01 05:01:16
  TRACK 120 AUDIO
    TITLE "5:cjc139_1203"
    INDEX 01 05:04:04
  TRACK 121 AUDIO
    TITLE "6:cjc139_1204"
    INDEX 01 05:07:09
  TRACK 122 AUDIO
    TITLE "5:cjc139_1205"
    INDEX 01 05:09:68
  TRACK 123 AUDIO
    TITLE "6:cjc139_1206"
    INDEX 01 05:13:23
  TRACK 124 AUDIO
    TITLE "5:cjc139_1207"
    INDEX 01 05:16:08
  TRACK 125 AUDIO
    TITLE "6:cjc139_1208"
    INDEX 01 05:18:59
  TRACK 126 AUDIO
    TITLE "5:cjc139_1209"
    INDEX 01 05:21:40
  TRACK 127 AUDIO
    TITLE "6:cjc139_1210"
    INDEX 01 05:24:09
  TRACK 128 AUDIO
    TITLE "0:"
    INDEX 01 05:27:00
